<?xml version="1.0" encoding="UTF-8" standalone="no"?>
<!-- Generator: Adobe Illustrator 19.0.0, SVG Export Plug-In . SVG Version: 6.00 Build 0)  -->

<svg
   xmlns:dc="http://purl.org/dc/elements/1.1/"
   xmlns:cc="http://creativecommons.org/ns#"
   xmlns:rdf="http://www.w3.org/1999/02/22-rdf-syntax-ns#"
   xmlns:svg="http://www.w3.org/2000/svg"
   xmlns="http://www.w3.org/2000/svg"
   xmlns:sodipodi="http://sodipodi.sourceforge.net/DTD/sodipodi-0.dtd"
   xmlns:inkscape="http://www.inkscape.org/namespaces/inkscape"
   version="1.1"
   id="Capa_1"
   x="0px"
   y="0px"
   viewBox="0 0 512 512"
   xml:space="preserve"
   sodipodi:docname="coin.svg"
   width="512"
   height="512"
   inkscape:version="0.92.2 (5c3e80d, 2017-08-06)"><metadata
     id="metadata49"><rdf:RDF><cc:Work
         rdf:about=""><dc:format>image/svg+xml</dc:format><dc:type
           rdf:resource="http://purl.org/dc/dcmitype/StillImage" /><dc:title></dc:title></cc:Work></rdf:RDF></metadata><defs
     id="defs47" /><sodipodi:namedview
     pagecolor="#ffffff"
     bordercolor="#666666"
     borderopacity="1"
     objecttolerance="10"
     gridtolerance="10"
     guidetolerance="10"
     inkscape:pageopacity="0"
     inkscape:pageshadow="2"
     inkscape:window-width="1920"
     inkscape:window-height="1017"
     id="namedview45"
     showgrid="false"
     fit-margin-top="0"
     fit-margin-left="0"
     fit-margin-right="0"
     fit-margin-bottom="0"
     inkscape:zoom="0.65186406"
     inkscape:cx="354.24921"
     inkscape:cy="60.186363"
     inkscape:window-x="-4"
     inkscape:window-y="-4"
     inkscape:window-maximized="1"
     inkscape:current-layer="Capa_1" /><g
     id="g14"
     transform="translate(0.58814226,684.58216)" /><g
     id="g16"
     transform="translate(0.58814226,684.58216)" /><g
     id="g18"
     transform="translate(0.58814226,684.58216)" /><g
     id="g20"
     transform="translate(0.58814226,684.58216)" /><g
     id="g22"
     transform="translate(0.58814226,684.58216)" /><g
     id="g24"
     transform="translate(0.58814226,684.58216)" /><g
     id="g26"
     transform="translate(0.58814226,684.58216)" /><g
     id="g28"
     transform="translate(0.58814226,684.58216)" /><g
     id="g30"
     transform="translate(0.58814226,684.58216)" /><g
     id="g32"
     transform="translate(0.58814226,684.58216)" /><g
     id="g34"
     transform="translate(0.58814226,684.58216)" /><g
     id="g36"
     transform="translate(0.58814226,684.58216)" /><g
     id="g38"
     transform="translate(0.58814226,684.58216)" /><g
     id="g40"
     transform="translate(0.58814226,684.58216)" /><g
     id="g42"
     transform="translate(0.58814226,684.58216)" /><g
     id="g213"
     transform="translate(0.58814226,684.58216)"><g
       transform="translate(-0.58814226,-684.58216)"
       id="g161"><path
         inkscape:connector-curvature="0"
         style="fill:#fedb41"
         d="M 257,0 C 116.302,0 0,114.3 0,255 0,395.7 116.302,512 257,512 397.698,512 512,395.7 512,255 512,114.3 397.698,0 257,0 Z"
         id="path2" /><path
         inkscape:connector-curvature="0"
         style="fill:#ffcc33"
         d="M 512,255 C 512,395.7 397.698,512 257,512 V 0 c 140.698,0 255,114.3 255,255 z"
         id="path4" /><path
         inkscape:connector-curvature="0"
         style="fill:#fea832"
         d="M 257,60 C 149.598,60 60,147.599 60,255 60,362.401 149.598,452 257,452 364.402,452 452,362.401 452,255 452,147.599 364.402,60 257,60 Z"
         id="path6" /><path
         inkscape:connector-curvature="0"
         style="fill:#fe9923"
         d="m 452,255 c 0,107.401 -87.598,197 -195,197 V 60 c 107.402,0 195,87.599 195,195 z"
         id="path8" /></g><g
       transform="matrix(0.32584925,0,0,0.32584925,50.803039,-603.71415)"
       id="g155"><g
         id="g98"><g
           id="g96"><path
             style="fill:#ffda44"
             inkscape:connector-curvature="0"
             d="m 879.15525,482.2368 c -2.723,-21.015 -6.586,-42.519 -11.52,-64.163 l 6.353,-5.376 c 7.796,-6.609 11.217,-17.268 8.681,-27.043 l -19.875,-79.639 h -80.873 c -7.889,0 -15.709,1.28 -23.226,3.817 -18.316,6.191 -33.001,19.037 -41.356,36.236 -8.239,16.873 -9.309,35.91 -3.072,53.574 15.383,43.799 49.152,182.761 4.073,244.41 -20.736,28.369 -60.625,34.327 -90.415,34.327 h -4.166 c -54.877,0 -75.543,-19.619 -86.319,-34.374 -41.844,-57.391 -15.29,-189.393 4.143,-244.317 6.237,-17.687 5.167,-36.724 -3.072,-53.597 -8.355,-17.199 -23.04,-30.068 -41.356,-36.236 -8.332,-2.839 -17.059,-4.119 -25.786,-3.793 l -78.311,-0.047 -19.852,79.523 c -2.56,9.891 0.861,20.55 8.681,27.183 l 6.33,5.353 c -4.934,21.644 -8.797,43.148 -11.52,64.163 -13.405,103.121 1.536,185.204 44.428,243.99 30.557,41.868 90.857,91.788 204.707,91.788 h 4.189 c 62.836,0 149.364,-15.918 204.707,-91.788 42.868,-58.786 57.832,-140.869 44.427,-243.991 z"
             id="path94" /></g></g><g
         id="g100" /><g
         id="g102" /><g
         id="g104" /><g
         id="g106" /><g
         id="g108" /><g
         id="g110" /><g
         id="g112" /><g
         id="g114" /><g
         id="g116" /><g
         id="g118" /><g
         id="g120" /><g
         id="g122" /><g
         id="g124" /><g
         id="g126" /><g
         id="g128" /></g></g></svg>